<svg xmlns="http://www.w3.org/2000/svg" viewBox="0 0 1197.52 442.24"><path fill="#130c0e" d="M411.31 276.91h98.49l-49.24-44.11zm308.1 0h66.71l-104.47-93.83h33.27a56.73 56.73 0 0 0 56.67-56.67V56.67A56.73 56.73 0 0 0 714.92 0H411.26l49.32 44.35h254.34a12.34 12.34 0 0 1 12.32 12.32v69.74a12.33 12.33 0 0 1-12.32 12.32H565.65z"/><path fill="#e42727" d="m0 138.72 425.92 29.94c31.09 2.19 61.58-8.76 83.41-29.94-22.13-21-52.26-31.65-82.91-29.53z"/><path fill="#130c0e" d="M74.57 416.32h6.2a16 16 0 0 0 16-16v-13.74a16 16 0 0 0-16-16H0v71.72h14.38v-59.51h67.13a1.57 1.57 0 0 1 1.57 1.58v17.81a1.57 1.57 0 0 1-1.57 1.57H39.73l42.7 38.37h20.6zm142.13-45.83a20.45 20.45 0 0 1 20.52 20.52v30.71a20.45 20.45 0 0 1-20.52 20.53h-61.5a20.5 20.5 0 0 1-20.51-20.53v-30.71a20.5 20.5 0 0 1 20.51-20.52zm6.22 18.44a6 6 0 0 0-1.79-4.34 5.91 5.91 0 0 0-4.38-1.83h-61.5a6.25 6.25 0 0 0-6.16 6.17v34.87a6.25 6.25 0 0 0 6.16 6.18h61.5a5.91 5.91 0 0 0 4.38-1.83 6 6 0 0 0 1.79-4.35zm153.2 41.05a.62.62 0 0 1 .46.18.56.56 0 0 1 .19.4v11a.65.65 0 0 1-.19.47.62.62 0 0 1-.46.18h-81.35a20.45 20.45 0 0 1-20.51-20.52v-30.7a20.47 20.47 0 0 1 20.51-20.52h81.35a.66.66 0 0 1 .46.18.65.65 0 0 1 .19.47v11.05a.56.56 0 0 1-.19.39.62.62 0 0 1-.46.18h-81.35a5.87 5.87 0 0 0-4.37 1.83 6 6 0 0 0-1.8 4.34v34.87a6 6 0 0 0 1.8 4.33 5.84 5.84 0 0 0 4.37 1.83zm132.89 12.22a.46.46 0 0 0 .25-.84l-54.47-34.96 54.58-35.01a.46.46 0 0 0-.25-.84h-22a1.06 1.06 0 0 0-.69.25l-47.72 28.71-14 .05v-28.35a.66.66 0 0 0-.65-.66h-12.09a.66.66 0 0 0-.66.66v70.37a.66.66 0 0 0 .65.66h12.08a.66.66 0 0 0 .65-.66v-28.63h13.65l48.08 29a1.06 1.06 0 0 0 .69.25zm48.71-41.96h85.25a.62.62 0 0 1 .46.18.64.64 0 0 1 .18.47v11a.62.62 0 0 1-.64.64h-85.25v11.25a6 6 0 0 0 1.78 4.34 5.91 5.91 0 0 0 4.38 1.83h81.29a.62.62 0 0 1 .46.18.54.54 0 0 1 .18.39v11a.64.64 0 0 1-.18.47.62.62 0 0 1-.46.18h-81.25a20.43 20.43 0 0 1-20.5-20.5v-30.6a20.42 20.42 0 0 1 20.5-20.49h81.29a.65.65 0 0 1 .46.17.64.64 0 0 1 .18.47v11a.55.55 0 0 1-.18.4.65.65 0 0 1-.46.17h-81.29a5.91 5.91 0 0 0-4.38 1.83 6 6 0 0 0-1.78 4.34zm126.39-28.86a.63.63 0 0 1 .17-.47.59.59 0 0 1 .4-.18h101a.59.59 0 0 1 .4.18.68.68 0 0 1 .18.47v11a.59.59 0 0 1-.18.39.58.58 0 0 1-.4.17h-43.36v58.64a.64.64 0 0 1-.18.47.55.55 0 0 1-.4.18h-13.08a.62.62 0 0 1-.65-.65v-58.62h-43.33a.58.58 0 0 1-.4-.17.53.53 0 0 1-.17-.39z"/><path fill="#919498" d="M927.19 441.68a.54.54 0 0 1-.18.39.57.57 0 0 1-.4.18h-81.27a20.42 20.42 0 0 1-20.49-20.5v-50.52a.64.64 0 0 1 .18-.47.59.59 0 0 1 .39-.18h13.12a.68.68 0 0 1 .46.18.64.64 0 0 1 .18.47v52.6a6 6 0 0 0 1.79 4.34 5.93 5.93 0 0 0 4.37 1.83h81.27a.6.6 0 0 1 .58.57zm43.79.57a.53.53 0 0 0 .47-.28l29-51.8a12.08 12.08 0 0 1 10.68-6.14 12.07 12.07 0 0 1 10.68 6.19l29 51.79a.45.45 0 0 0 .4.24h14.82a.47.47 0 0 0 .41-.69l-32.41-57.81a25.93 25.93 0 0 0-22.92-13.26h-.05a25.93 25.93 0 0 0-22.93 13.2l-32.21 57.75a.55.55 0 0 0 .47.81zm226.53-50.17a19.66 19.66 0 0 1-5.87 14.33 19.69 19.69 0 0 1 5.87 14.34v1.07a19.59 19.59 0 0 1-6 14.44 19.79 19.79 0 0 1-14.47 6h-81.27a.64.64 0 0 1-.47-.18.54.54 0 0 1-.18-.39v-70.46a.62.62 0 0 1 .65-.65h81.27a20.55 20.55 0 0 1 20.49 20.5zm-88.07-9.18v17.42h67.58a6.23 6.23 0 0 0 6.16-6.16V389a5.82 5.82 0 0 0-1.83-4.3 6 6 0 0 0-4.33-1.8zm73.74 40.93v-5.09a5.87 5.87 0 0 0-1.83-4.37 6 6 0 0 0-4.33-1.79h-67.58v17.41h67.58a6 6 0 0 0 4.33-1.79 5.87 5.87 0 0 0 1.83-4.37"/></svg>